<svg fill="#1A1A1A" xmlns="http://www.w3.org/2000/svg"  viewBox="0 0 32 32" width="32px" height="32px"><path d="M 6 5 C 3.8026661 5 2 6.8026661 2 9 L 2 24 C 2 25.64497 3.3550302 27 5 27 L 10 27 L 10 17.03125 L 16 21.552734 L 22 17.03125 L 22 27 L 27 27 C 28.64497 27 30 25.64497 30 24 L 30 9 C 30 6.8026661 28.197334 5 26 5 C 25.103127 5 24.263145 5.2976622 23.591797 5.7988281 L 23.589844 5.8007812 L 16 11.517578 L 8.4121094 5.8007812 L 8.4121094 5.8027344 C 7.7382078 5.2939553 6.8953058 5 6 5 z M 6 7 C 6.4606942 7 6.876933 7.1492198 7.2070312 7.3984375 L 8 7.9960938 L 8 13.019531 L 4 10.005859 L 4 9 C 4 7.8833339 4.8833339 7 6 7 z M 26 7 C 27.116666 7 28 7.8833339 28 9 L 28 10.003906 L 24 13.017578 L 24 7.9941406 L 24.789062 7.4003906 C 25.119715 7.1535565 25.550873 7 26 7 z M 10 9.5019531 L 16 14.021484 L 22 9.5019531 L 22 14.525391 L 16 19.046875 L 10 14.525391 L 10 9.5019531 z M 4 12.507812 L 8 15.523438 L 8 25 L 5 25 C 4.4349698 25 4 24.56503 4 24 L 4 12.507812 z M 28 12.507812 L 28 24 C 28 24.56503 27.56503 25 27 25 L 24 25 L 24 15.523438 L 28 12.507812 z"/></svg>